<svg xmlns="http://www.w3.org/2000/svg" xmlns:xlink="http://www.w3.org/1999/xlink" preserveAspectRatio="xMidYMid" width="114.969" height="114.97" viewBox="0 0 114.969 114.97">
  <defs>
    <style>
      .cls-1 {
        fill: #fff;
        fill-rule: evenodd;
      }
    </style>
  </defs>
  <path d="M57.485,114.984 C25.788,114.984 0.001,89.196 0.001,57.499 C0.001,25.803 25.788,0.015 57.485,0.015 C89.182,0.015 114.970,25.803 114.970,57.499 C114.970,89.196 89.182,114.984 57.485,114.984 ZM90.178,50.792 L90.178,37.445 C90.178,30.475 84.509,24.810 77.540,24.810 L37.428,24.810 C30.459,24.810 24.793,30.475 24.793,37.445 L24.793,50.792 L24.793,77.559 C24.793,84.531 30.459,90.197 37.428,90.197 L77.542,90.197 C84.509,90.197 90.178,84.531 90.178,77.559 L90.178,50.792 ZM77.538,83.820 L37.426,83.820 C33.969,83.820 31.160,81.018 31.160,77.559 L31.160,50.792 L40.920,50.792 C40.077,52.862 39.605,55.128 39.605,57.499 C39.605,67.357 47.624,75.382 57.485,75.382 C67.347,75.382 75.366,67.357 75.366,57.499 C75.366,55.128 74.886,52.862 74.041,50.792 L83.803,50.792 L83.803,77.559 C83.803,81.018 80.995,83.820 77.538,83.820 ZM71.526,32.374 L81.168,32.344 L82.613,32.340 L82.613,33.775 L82.613,43.421 L71.566,43.459 L71.526,32.374 ZM57.483,69.007 C51.139,69.007 45.973,63.844 45.975,57.497 C45.977,54.992 46.790,52.679 48.152,50.789 C50.247,47.890 53.644,45.991 57.485,45.991 C61.324,45.991 64.724,47.893 66.817,50.792 C68.176,52.681 68.996,54.994 68.996,57.499 C68.996,63.846 63.825,69.007 57.483,69.007 Z" class="cls-1"/>
</svg>
