<svg xmlns="http://www.w3.org/2000/svg" xmlns:xlink="http://www.w3.org/1999/xlink" preserveAspectRatio="xMidYMid" width="115" height="115" viewBox="0 0 115 115">
  <defs>
    <style>
      .cls-1 {
        fill: #fff;
        fill-rule: evenodd;
      }
    </style>
  </defs>
  <path d="M57.488,0.002 C25.734,0.002 -0.012,25.748 -0.012,57.502 C-0.012,89.257 25.734,115.002 57.488,115.002 C89.242,115.002 114.988,89.257 114.988,57.502 C114.988,25.741 89.242,0.002 57.488,0.002 ZM86.098,44.594 L86.139,46.426 C86.139,65.139 71.898,86.702 45.857,86.702 C37.866,86.702 30.426,84.357 24.158,80.342 C25.267,80.468 26.393,80.546 27.538,80.546 C34.171,80.546 40.274,78.278 45.117,74.489 C38.923,74.376 33.697,70.276 31.893,64.655 C32.764,64.816 33.641,64.900 34.561,64.900 C35.855,64.900 37.105,64.732 38.291,64.409 C31.816,63.104 26.934,57.386 26.934,50.529 L26.934,50.350 C28.847,51.413 31.023,52.048 33.346,52.126 C29.549,49.588 27.050,45.254 27.050,40.344 C27.050,37.751 27.745,35.322 28.963,33.230 C35.940,41.797 46.377,47.433 58.141,48.023 C57.898,46.987 57.775,45.899 57.775,44.794 C57.775,36.982 64.114,30.644 71.933,30.644 C76.004,30.644 79.682,32.360 82.272,35.112 C85.494,34.473 88.526,33.293 91.263,31.679 C90.204,34.985 87.964,37.757 85.038,39.513 C87.895,39.176 90.632,38.404 93.166,37.284 C91.271,40.116 88.863,42.611 86.098,44.594 Z" class="cls-1"/>
</svg>
