<svg xmlns="http://www.w3.org/2000/svg" xmlns:xlink="http://www.w3.org/1999/xlink" preserveAspectRatio="xMidYMid" width="115" height="115" viewBox="0 0 115 115">
  <defs>
    <style>
      .cls-1 {
        fill: #fff;
        fill-rule: evenodd;
      }
    </style>
  </defs>
  <path d="M57.488,0.002 C25.733,0.002 -0.012,25.748 -0.012,57.502 C-0.012,89.257 25.733,115.002 57.488,115.002 C89.242,115.002 114.988,89.257 114.988,57.502 C114.988,25.741 89.242,0.002 57.488,0.002 ZM72.354,57.495 L62.927,57.502 L62.921,92.001 L49.991,92.001 L49.991,57.502 L41.365,57.502 L41.365,45.616 L49.991,45.608 L49.977,38.607 C49.977,28.903 52.606,23.004 64.030,23.004 L73.547,23.004 L73.547,34.897 L67.595,34.897 C63.145,34.897 62.927,36.557 62.927,39.657 L62.913,45.608 L73.611,45.608 L72.354,57.495 Z" class="cls-1"/>
</svg>
